<svg xmlns="http://www.w3.org/2000/svg" width="719" height="194"><rect width="100%" height="100%" fill="none"/><g class="currentLayer"><path fill="#727272" d="M124.8 124.7C109.5 85.3 95.3 48.2 80 8.8L34.8 124.7l-2.5 5.7-25.7 63.7H0L77.1 0h5.7l76.8 194.1H153l-26-63.7-2.2-5.7zM493.5 47.5c-13-13.4-30.5-20.7-49.4-20.7-18.7 0-36.1 7.4-49 20.7-13.3 13.8-20.7 31.4-20.7 49.6 0 18.2 7.3 35.8 20.7 49.6 13 13.4 30.4 20.7 49 20.7 18.9 0 36.5-7.4 49.4-20.7 13.2-13.6 20.5-31.2 20.5-49.6 0-18.3-7.3-35.9-20.5-49.6zm-4.4 94.7c-11.8 12-28.3 18.9-45 18.9s-32.7-6.7-44.8-18.9c-12-12.4-18.6-28.4-18.6-45.1 0-16.7 6.6-32.7 18.5-45.1 12.2-12.2 28.1-18.9 44.9-18.9 16.8 0 33.2 6.9 45 18.9 12 12.2 18.6 28.2 18.6 45.1-.1 16.9-6.6 32.9-18.6 45.1zM557.3 192.8h-5.7V1.5h5.5l78.2 115.6L713.9 1.5h5.5v191.3h-5.7V11l-76.3 113.2h-3.8L557.3 11.3v181.5zM270.7 93.7v-.1h-.2V27.4h-6.9v66h-.1v.3h-66.2v6.9h66.3v31.7h-.1v34.5h7v-66.2h66.2v-6.9z"/></g></svg>