<?xml version="1.0" encoding="utf-8"?>
<!-- Generator: Adobe Illustrator 18.0.0, SVG Export Plug-In . SVG Version: 6.00 Build 0)  -->
<!DOCTYPE svg PUBLIC "-//W3C//DTD SVG 1.1//EN" "http://www.w3.org/Graphics/SVG/1.1/DTD/svg11.dtd">
<svg version="1.1" id="Layer_1" xmlns="http://www.w3.org/2000/svg" xmlns:xlink="http://www.w3.org/1999/xlink" x="0px" y="0px"
	 viewBox="55 236.3 732 121" enable-background="new 55 236.3 732 121" xml:space="preserve">
<g>
	<g>
		<path fill="#656464" d="M96.9,272.3l-12,47.2l7.3,0.2l3.5-13.9h10l3.5,13.9l7.3-0.2l-12-47.2H96.9z M103.9,299.1h-6.5l3.2-13.7
			L103.9,299.1z"/>
		<path fill="#656464" d="M141.9,293.4c2.3-2,3.5-4.9,3.5-8.4c0-8.2-5.8-12.6-11.3-12.6h-15v6.8h3.6v33.7h-3.6v6.8h15.7
			c6.1,0,12.6-3.9,12.6-14.7C147.5,299.5,145.7,295.8,141.9,293.4z M130,297.4h3.5c4.5,0,6.6,2.3,6.6,7.4c0,3.7-0.9,8-5.4,8H130
			L130,297.4L130,297.4z M132.6,290.6H130v-11.5h1.2c5,0,6.7,1.5,6.7,5.8C138,288.9,136.4,290.6,132.6,290.6z"/>
	</g>
	<path fill="#656464" d="M115.7,354.2c-31.6,0-57.4-25.7-57.4-57.4s25.7-57.4,57.4-57.4s57.4,25.7,57.4,57.4
		S147.4,354.2,115.7,354.2z M115.7,243c-29.7,0-53.9,24.2-53.9,53.9c0,29.7,24.2,53.9,53.9,53.9s53.9-24.2,53.9-53.9
		C169.6,267.2,145.4,243,115.7,243z"/>
	<g>
		<g>
			<polygon fill="#656464" points="310.2,273.5 323.8,273.5 323.8,330.5 334.4,330.5 334.4,273.5 347.6,273.5 347.6,263.5 
				310.2,263.5 			"/>
			<polygon fill="#656464" points="356,273.5 364.5,273.5 364.5,320.5 356,320.5 356,330.5 383.7,330.5 383.7,320.5 375.1,320.5 
				375.1,273.5 383.7,273.5 383.7,263.5 356,263.5 			"/>
			<path fill="#656464" d="M413.3,291.5c-9.8-5.9-9.8-6.9-9.8-10.7c0-2.9,0.8-7.9,6.1-7.9c2.1,0,5,0.8,6.5,7.5l0.4,2l10.4-1.6
				l-0.4-2.2c-2.1-10.3-8.1-15.9-16.9-15.9c-9.5,0-16.7,7.8-16.7,18.1c0,10.7,6.1,14.2,13.1,18.3l0.6,0.4
				c6.1,3.5,10.1,5.9,10.1,12.6c0,5.8-2.5,9-7.1,9c-5.1,0-6.8-2.3-7.8-10.3l-0.3-2.2L391,310l0.2,2.1c1.2,13,7.2,19.2,18.2,19.2
				c10.9,0,17.9-7.8,17.9-19.8C427.2,300.7,421.1,296.3,413.3,291.5z"/>
			<polygon fill="#656464" points="431.7,273.5 445.2,273.5 445.2,330.5 455.9,330.5 455.9,273.5 469.1,273.5 469.1,263.5 
				431.7,263.5 			"/>
			<path fill="#656464" d="M234.2,264.3l-16.6,65.5l9.7,0.2l4.9-19.3h14.2l4.8,19.3l9.7-0.2l-16.5-65.5H234.2z M234.5,301.6
				l4.8-20.1l4.8,20.1H234.5z"/>
			<path fill="#656464" d="M304.9,282.3c0-12.2-8.3-18.8-16.2-18.8h-17.3h-1.7h-5.1v10h5.1v57h10.6v-27.9h4.1l0.9-0.1l11.2,27.5
				l9.7-0.2l-11.7-28.6C301.1,298,304.9,291.2,304.9,282.3z M287.3,292.6h-7v-19.1h5.5c5.9,0,8.2,2.5,8.2,8.8
				C293.9,289.1,291.7,292.6,287.3,292.6z"/>
		</g>
		<g>
			<path fill="#656464" d="M540.5,293.3c3.1-2.9,4.8-7,4.8-11.8c0-11.7-8.3-17.9-16.1-17.9h-21.3v10h5.1v47h-5.1v10h22.4
				c8.7,0,17.9-5.5,17.9-21C548.2,302,545.7,296.7,540.5,293.3z M523.6,289.2v-15.7h1.5c7,0,9.3,1.9,9.3,8c0,5.5-2.1,7.8-7.3,7.8
				L523.6,289.2L523.6,289.2z M537.2,309.4c0,7.3-2.5,11.1-7.3,11.1h-6.4v-21.3h4.7C534.5,299.2,537.2,302.4,537.2,309.4z"/>
			<path fill="#656464" d="M583,311.2c0,8.2-2.8,9.8-6.9,9.8c-4.3,0-6.8-1.6-6.8-9.8v-47.7h-9h-1.7h-5.1v10h5.1v39.9
				c0,10.7,7,17.9,17.5,17.9c10.5,0,17.6-7.3,17.6-18.2v-49.6h-10.6L583,311.2L583,311.2z"/>
			<polygon fill="#656464" points="654.8,330.5 689.6,330.5 689.6,320.5 665.4,320.5 665.4,299.8 685.4,299.8 685.4,289.8 
				665.4,289.8 665.4,273.5 689.6,273.5 689.6,263.5 654.8,263.5 			"/>
			<path fill="#656464" d="M773,263.5v47.7c0,8.2-2.8,9.8-6.9,9.8c-4.3,0-6.8-1.6-6.8-9.8v-47.7h-9h-1.7h-5.1v10h5.1v39.9
				c0,10.7,7,17.9,17.5,17.9s17.6-7.3,17.6-18.2v-49.6L773,263.5L773,263.5z"/>
			<path fill="#656464" d="M715.1,264.3l-16.6,65.5l9.7,0.2l4.9-19.3h14.2l4.8,19.3l9.7-0.2l-16.6-65.5H715.1z M715.4,301.6
				l4.8-20.1l4.8,20.1H715.4z"/>
			<path fill="#656464" d="M643.5,282.3c0-12.2-8.3-18.8-16.2-18.8H610h-1.7h-5.1v10h5.1v57h10.6v-27.9h4.1l0.9-0.1l11.2,27.5
				l9.7-0.2l-11.7-28.6C639.7,298,643.5,291.2,643.5,282.3z M625.9,292.6h-7v-19.1h5.5c5.9,0,8.2,2.5,8.2,8.8
				C632.6,289.1,630.4,292.6,625.9,292.6z"/>
		</g>
	</g>
</g>
</svg>
