<?xml version="1.0" encoding="utf-8"?><!DOCTYPE svg PUBLIC "-//W3C//DTD SVG 1.1//EN" "http://www.w3.org/Graphics/SVG/1.1/DTD/svg11.dtd"><svg xmlns="http://www.w3.org/2000/svg" xmlns:xlink="http://www.w3.org/1999/xlink"><symbol viewBox="0 0 20 20" id="svg--cross" xmlns="http://www.w3.org/2000/svg"><path d="M10.707 10.5l5.646-5.646a.5.5 0 0 0-.707-.707L10 9.793 4.354 4.147a.5.5 0 0 0-.707.707L9.293 10.5l-5.646 5.646a.5.5 0 0 0 .708.707l5.646-5.646 5.646 5.646a.498.498 0 0 0 .708 0 .5.5 0 0 0 0-.707L10.709 10.5z"/></symbol><symbol viewBox="0 0 20 20" id="svg--menu" xmlns="http://www.w3.org/2000/svg"><path d="M17.5 6h-15a.5.5 0 0 1 0-1h15a.5.5 0 0 1 0 1zM17.5 11h-15a.5.5 0 0 1 0-1h15a.5.5 0 0 1 0 1zM17.5 16h-15a.5.5 0 0 1 0-1h15a.5.5 0 0 1 0 1z"/></symbol></svg>