<?xml version="1.0" encoding="utf-8"?><!DOCTYPE svg PUBLIC "-//W3C//DTD SVG 1.1//EN" "http://www.w3.org/Graphics/SVG/1.1/DTD/svg11.dtd"><svg xmlns="http://www.w3.org/2000/svg" xmlns:xlink="http://www.w3.org/1999/xlink"><symbol viewBox="0 0 20 20" id="svg--cross" xmlns="http://www.w3.org/2000/svg"><path d="M10.707 10.5l5.646-5.646a.5.5 0 0 0-.707-.707L10 9.793 4.354 4.147a.5.5 0 0 0-.707.707L9.293 10.5l-5.646 5.646a.5.5 0 0 0 .708.707l5.646-5.646 5.646 5.646a.498.498 0 0 0 .708 0 .5.5 0 0 0 0-.707L10.709 10.5z"/></symbol><symbol viewBox="55 236.3 732 121" id="svg--logo" xmlns="http://www.w3.org/2000/svg"><g fill="#656464"><path d="M96.9 272.3l-12 47.2 7.3.2 3.5-13.9h10l3.5 13.9 7.3-.2-12-47.2h-7.6zm7 26.8h-6.5l3.2-13.7 3.3 13.7zM141.9 293.4c2.3-2 3.5-4.9 3.5-8.4 0-8.2-5.8-12.6-11.3-12.6h-15v6.8h3.6v33.7h-3.6v6.8h15.7c6.1 0 12.6-3.9 12.6-14.7.1-5.5-1.7-9.2-5.5-11.6zm-11.9 4h3.5c4.5 0 6.6 2.3 6.6 7.4 0 3.7-.9 8-5.4 8H130v-15.4zm2.6-6.8H130v-11.5h1.2c5 0 6.7 1.5 6.7 5.8.1 4-1.5 5.7-5.3 5.7z"/><path d="M115.7 354.2c-31.6 0-57.4-25.7-57.4-57.4s25.7-57.4 57.4-57.4 57.4 25.7 57.4 57.4-25.7 57.4-57.4 57.4zm0-111.2c-29.7 0-53.9 24.2-53.9 53.9s24.2 53.9 53.9 53.9 53.9-24.2 53.9-53.9-24.2-53.9-53.9-53.9z"/><g><path d="M310.2 273.5h13.6v57h10.6v-57h13.2v-10h-37.4zM356 273.5h8.5v47H356v10h27.7v-10h-8.6v-47h8.6v-10H356zM413.3 291.5c-9.8-5.9-9.8-6.9-9.8-10.7 0-2.9.8-7.9 6.1-7.9 2.1 0 5 .8 6.5 7.5l.4 2 10.4-1.6-.4-2.2c-2.1-10.3-8.1-15.9-16.9-15.9-9.5 0-16.7 7.8-16.7 18.1 0 10.7 6.1 14.2 13.1 18.3l.6.4c6.1 3.5 10.1 5.9 10.1 12.6 0 5.8-2.5 9-7.1 9-5.1 0-6.8-2.3-7.8-10.3l-.3-2.2L391 310l.2 2.1c1.2 13 7.2 19.2 18.2 19.2 10.9 0 17.9-7.8 17.9-19.8-.1-10.8-6.2-15.2-14-20zM431.7 273.5h13.5v57h10.7v-57h13.2v-10h-37.4zM234.2 264.3l-16.6 65.5 9.7.2 4.9-19.3h14.2l4.8 19.3 9.7-.2-16.5-65.5h-10.2zm.3 37.3l4.8-20.1 4.8 20.1h-9.6zM304.9 282.3c0-12.2-8.3-18.8-16.2-18.8h-24.1v10h5.1v57h10.6v-27.9h4.1l.9-.1 11.2 27.5 9.7-.2-11.7-28.6c6.6-3.2 10.4-10 10.4-18.9zm-17.6 10.3h-7v-19.1h5.5c5.9 0 8.2 2.5 8.2 8.8-.1 6.8-2.3 10.3-6.7 10.3z"/><g><path d="M540.5 293.3c3.1-2.9 4.8-7 4.8-11.8 0-11.7-8.3-17.9-16.1-17.9h-21.3v10h5.1v47h-5.1v10h22.4c8.7 0 17.9-5.5 17.9-21 0-7.6-2.5-12.9-7.7-16.3zm-16.9-4.1v-15.7h1.5c7 0 9.3 1.9 9.3 8 0 5.5-2.1 7.8-7.3 7.8l-3.5-.1zm13.6 20.2c0 7.3-2.5 11.1-7.3 11.1h-6.4v-21.3h4.7c6.3 0 9 3.2 9 10.2zM583 311.2c0 8.2-2.8 9.8-6.9 9.8-4.3 0-6.8-1.6-6.8-9.8v-47.7H553.5v10h5.1v39.9c0 10.7 7 17.9 17.5 17.9s17.6-7.3 17.6-18.2v-49.6h-10.6l-.1 47.7zM654.8 330.5h34.8v-10h-24.2v-20.7h20v-10h-20v-16.3h24.2v-10h-34.8zM773 263.5v47.7c0 8.2-2.8 9.8-6.9 9.8-4.3 0-6.8-1.6-6.8-9.8v-47.7H743.5v10h5.1v39.9c0 10.7 7 17.9 17.5 17.9s17.6-7.3 17.6-18.2v-49.6H773zM715.1 264.3l-16.6 65.5 9.7.2 4.9-19.3h14.2l4.8 19.3 9.7-.2-16.6-65.5h-10.1zm.3 37.3l4.8-20.1 4.8 20.1h-9.6zM643.5 282.3c0-12.2-8.3-18.8-16.2-18.8h-24.1v10h5.1v57h10.6v-27.9h4.1l.9-.1 11.2 27.5 9.7-.2-11.7-28.6c6.6-3.2 10.4-10 10.4-18.9zm-17.6 10.3h-7v-19.1h5.5c5.9 0 8.2 2.5 8.2 8.8 0 6.8-2.2 10.3-6.7 10.3z"/></g></g></g></symbol><symbol viewBox="0 0 20 20" id="svg--menu" xmlns="http://www.w3.org/2000/svg"><path d="M17.5 6h-15a.5.5 0 0 1 0-1h15a.5.5 0 0 1 0 1zM17.5 11h-15a.5.5 0 0 1 0-1h15a.5.5 0 0 1 0 1zM17.5 16h-15a.5.5 0 0 1 0-1h15a.5.5 0 0 1 0 1z"/></symbol><symbol viewBox="0 0 8 8" id="svg--play-circle" xmlns="http://www.w3.org/2000/svg"><path d="M4 0C1.79 0 0 1.79 0 4s1.79 4 4 4 4-1.79 4-4-1.79-4-4-4zM3 2l3 2-3 2V2z"/></symbol></svg>